<svg xmlns="http://www.w3.org/2000/svg" xmlns:xlink="http://www.w3.org/1999/xlink" width="450" zoomAndPan="magnify" viewBox="0 0 337.5 112.499997" height="150" preserveAspectRatio="xMidYMid meet" version="1.0"><defs><g/><clipPath id="id1"><path d="M 5.882812 43 L 83 43 L 83 70 L 5.882812 70 Z M 5.882812 43 " clip-rule="nonzero"/></clipPath><clipPath id="id2"><path d="M 64 26.574219 L 164.414062 26.574219 L 164.414062 70 L 64 70 Z M 64 26.574219 " clip-rule="nonzero"/></clipPath><clipPath id="id3"><path d="M 5.882812 68 L 164.414062 68 L 164.414062 79.664062 L 5.882812 79.664062 Z M 5.882812 68 " clip-rule="nonzero"/></clipPath></defs><g clip-path="url(#id1)"><path fill="#519059" d="M 22.082031 67.519531 L 13.980469 67.519531 L 13.980469 65.792969 C 15.140625 65.792969 15.71875 65.792969 16.875 65.214844 C 16.296875 64.640625 15.140625 64.066406 14.5625 63.488281 C 15.140625 63.488281 15.71875 63.488281 16.296875 63.488281 C 15.71875 62.914062 15.140625 62.335938 14.5625 61.761719 C 15.140625 61.761719 15.140625 61.761719 15.71875 61.761719 C 15.140625 61.183594 14.5625 60.609375 13.980469 59.457031 C 13.402344 60.609375 12.824219 61.183594 12.246094 61.761719 C 12.246094 61.761719 12.824219 61.761719 13.402344 61.761719 C 12.824219 62.335938 12.246094 62.914062 11.667969 63.488281 C 12.246094 63.488281 12.824219 63.488281 12.824219 63.488281 C 12.246094 64.066406 11.667969 64.640625 11.089844 65.214844 C 11.667969 65.792969 12.824219 65.792969 13.402344 65.792969 L 13.402344 67.519531 L 7.039062 67.519531 C 6.460938 67.519531 5.882812 68.097656 5.882812 68.671875 C 5.882812 69.824219 6.460938 69.824219 7.039062 69.824219 L 21.503906 69.824219 C 36.546875 68.097656 56.796875 66.945312 82.253906 66.945312 C 72.996094 61.183594 66.054688 53.695312 61.425781 45.054688 C 60.847656 42.75 59.691406 42.75 58.53125 43.902344 L 42.332031 60.609375 C 39.441406 64.066406 35.390625 65.792969 31.339844 66.367188 L 31.339844 63.488281 C 33.074219 63.488281 34.230469 63.488281 35.96875 62.914062 C 34.230469 61.761719 33.074219 61.183594 31.917969 59.457031 C 33.074219 60.03125 33.652344 59.457031 34.8125 59.457031 C 33.652344 58.878906 32.496094 57.726562 31.917969 57.152344 C 32.496094 56.574219 33.074219 56.574219 33.652344 56.574219 C 32.496094 56 31.917969 54.847656 30.761719 53.117188 C 29.605469 54.847656 29.023438 56 27.867188 56.574219 C 28.445312 56.574219 29.023438 56.574219 29.605469 57.152344 C 29.023438 57.726562 27.867188 58.878906 27.289062 59.457031 C 27.867188 59.457031 28.445312 60.03125 29.605469 59.457031 C 28.445312 61.183594 27.289062 61.761719 26.132812 62.914062 C 27.289062 63.488281 28.445312 63.488281 30.183594 63.488281 L 30.183594 66.945312 C 27.867188 67.519531 24.976562 67.519531 22.660156 67.519531 L 22.660156 65.214844 C 23.816406 65.214844 24.976562 65.214844 25.554688 64.640625 C 24.976562 64.066406 23.816406 63.488281 23.238281 62.335938 C 23.816406 62.335938 24.394531 62.335938 24.976562 62.335938 C 24.394531 61.761719 23.816406 61.183594 23.238281 60.609375 C 23.816406 60.609375 23.816406 60.609375 24.394531 60.03125 C 23.816406 60.03125 23.238281 59.457031 22.082031 57.726562 C 21.503906 59.457031 20.925781 60.03125 20.347656 60.03125 C 20.925781 60.609375 20.925781 60.609375 21.503906 60.609375 C 20.925781 61.183594 20.347656 61.761719 19.769531 62.335938 C 20.347656 62.335938 20.925781 62.335938 21.503906 62.335938 C 20.347656 63.488281 19.769531 64.066406 18.609375 64.640625 C 19.769531 65.214844 20.925781 65.214844 22.082031 65.214844 Z M 22.082031 67.519531 " fill-opacity="1" fill-rule="evenodd"/></g><path fill="#69aa60" d="M 60.269531 46.207031 C 64.320312 54.269531 69.527344 60.03125 75.3125 65.214844 C 65.476562 65.214844 57.375 65.214844 49.273438 65.792969 L 55.0625 55.421875 C 55.0625 55.421875 56.21875 56 59.109375 57.152344 C 59.109375 57.152344 59.109375 53.695312 59.691406 45.628906 C 59.691406 44.476562 59.691406 44.476562 60.269531 46.207031 Z M 60.269531 46.207031 " fill-opacity="1" fill-rule="evenodd"/><g clip-path="url(#id2)"><path fill="#519059" d="M 151.683594 65.792969 C 151.105469 65.792969 151.105469 65.792969 150.527344 65.792969 L 150.527344 67.519531 L 153.417969 67.519531 L 153.417969 66.367188 C 152.839844 66.367188 152.261719 66.367188 151.683594 65.792969 Z M 106.554688 67.519531 C 88.617188 63.488281 74.734375 56.574219 64.898438 46.207031 C 75.890625 33.53125 81.675781 27.769531 81.675781 27.769531 C 82.832031 26.042969 83.988281 26.042969 85.148438 27.769531 C 101.347656 43.902344 109.449219 51.964844 109.449219 51.964844 C 113.496094 49.085938 115.234375 47.933594 115.234375 47.933594 C 116.390625 47.359375 116.96875 47.359375 117.546875 48.511719 C 121.597656 52.542969 124.492188 56 126.804688 58.878906 C 131.433594 64.066406 132.589844 64.640625 136.0625 65.792969 L 136.0625 63.488281 C 134.328125 63.488281 133.167969 63.488281 131.433594 62.914062 C 133.167969 61.761719 134.328125 61.183594 134.90625 59.457031 C 134.328125 60.03125 133.75 59.457031 132.589844 59.457031 C 133.75 58.878906 134.90625 57.726562 135.484375 57.152344 C 134.90625 56.574219 134.328125 56.574219 133.75 56.574219 C 134.328125 56 135.484375 54.847656 136.640625 53.117188 C 137.796875 54.847656 138.375 56 139.535156 56.574219 C 138.957031 56.574219 138.375 56.574219 137.796875 57.152344 C 138.375 57.726562 139.535156 58.878906 140.113281 59.457031 C 139.535156 59.457031 138.957031 60.03125 137.796875 59.457031 C 138.957031 61.183594 140.113281 61.761719 141.269531 62.914062 C 140.113281 63.488281 138.375 63.488281 137.21875 63.488281 L 137.21875 65.792969 C 140.113281 66.367188 142.425781 66.945312 144.742188 67.519531 L 144.742188 65.214844 C 143.582031 65.214844 142.425781 65.214844 141.269531 64.640625 C 142.425781 64.066406 143.582031 63.488281 144.164062 62.335938 C 143.582031 62.335938 143.003906 62.335938 142.425781 62.335938 C 143.003906 61.761719 143.582031 61.183594 144.164062 60.609375 C 143.582031 60.609375 143.582031 60.609375 143.003906 60.03125 C 143.582031 60.03125 144.164062 59.457031 144.742188 57.726562 C 145.898438 59.457031 146.476562 60.03125 147.054688 60.03125 C 146.476562 60.609375 146.476562 60.609375 145.898438 60.609375 C 146.476562 61.183594 147.054688 61.761719 147.632812 62.335938 C 147.054688 62.335938 146.476562 62.335938 145.898438 62.335938 C 146.476562 63.488281 147.632812 64.066406 148.792969 64.640625 C 147.632812 65.214844 146.476562 65.214844 145.320312 65.214844 L 145.320312 67.519531 C 146.476562 67.519531 148.210938 67.519531 149.949219 67.519531 L 149.949219 65.792969 C 149.371094 65.792969 148.792969 65.792969 147.632812 65.792969 C 148.210938 65.214844 149.371094 64.640625 149.949219 64.066406 C 149.371094 64.066406 148.792969 64.066406 148.210938 63.488281 C 148.792969 63.488281 149.371094 62.914062 149.949219 62.335938 C 149.371094 62.335938 149.371094 62.335938 148.792969 62.335938 C 149.371094 61.761719 149.949219 61.183594 150.527344 60.03125 C 151.105469 61.183594 151.683594 61.761719 152.261719 62.335938 C 151.683594 62.335938 151.683594 62.335938 151.105469 62.335938 C 151.683594 62.914062 152.261719 63.488281 152.261719 63.488281 C 152.261719 64.066406 151.683594 64.066406 151.105469 64.066406 C 151.683594 64.640625 152.261719 64.640625 152.839844 65.214844 C 152.839844 65.214844 152.839844 64.640625 153.417969 64.640625 C 152.839844 64.640625 152.261719 64.640625 152.261719 64.066406 C 152.839844 64.066406 152.839844 63.488281 153.417969 62.914062 C 152.839844 62.914062 152.839844 62.914062 152.261719 62.914062 C 152.839844 62.914062 153.417969 62.335938 154 61.183594 C 154.578125 62.335938 155.15625 62.914062 155.15625 62.914062 C 155.15625 62.914062 154.578125 62.914062 154.578125 62.914062 C 154.578125 63.488281 155.15625 64.066406 155.734375 64.066406 C 155.15625 64.640625 155.15625 64.640625 154.578125 64.640625 C 155.15625 65.214844 155.734375 65.792969 156.3125 65.792969 C 155.734375 66.367188 155.15625 66.367188 154 66.367188 L 154 67.519531 L 162.675781 67.519531 C 163.835938 67.519531 164.414062 68.097656 164.414062 68.671875 C 164.414062 69.25 163.835938 69.824219 163.253906 69.824219 C 142.425781 68.671875 123.332031 67.519531 106.554688 67.519531 Z M 106.554688 67.519531 " fill-opacity="1" fill-rule="evenodd"/></g><path fill="#69aa60" d="M 111.761719 65.792969 C 98.453125 63.488281 86.882812 58.878906 75.890625 52.542969 C 89.199219 53.117188 95.5625 53.695312 95.5625 53.695312 C 95.5625 53.695312 90.933594 50.816406 81.675781 45.054688 C 85.726562 42.75 88.039062 41.597656 88.039062 41.597656 C 85.148438 34.683594 83.410156 30.652344 83.410156 30.652344 C 107.132812 53.117188 118.125 64.640625 118.125 64.640625 C 115.234375 59.457031 113.496094 56.574219 113.496094 56.574219 C 115.234375 53.117188 116.390625 51.390625 116.390625 51.390625 L 129.121094 66.367188 C 123.332031 66.367188 117.546875 66.367188 111.761719 65.792969 Z M 111.761719 65.792969 " fill-opacity="1" fill-rule="evenodd"/><g clip-path="url(#id3)"><path fill="#0087c4" d="M 94.984375 72.128906 C 134.90625 71.554688 147.632812 71.554688 154.578125 71.554688 C 169.042969 72.128906 109.449219 73.28125 94.984375 72.128906 Z M 80.519531 71.554688 C 99.035156 70.976562 126.804688 70.976562 164.414062 70.976562 C 92.089844 67.519531 42.910156 68.097656 15.71875 71.554688 C 9.933594 72.707031 8.195312 73.28125 11.667969 73.859375 C 18.03125 75.585938 50.433594 76.164062 46.960938 76.738281 C 40.597656 78.464844 13.402344 77.890625 5.882812 77.890625 C 20.347656 80.195312 75.3125 80.195312 88.039062 77.890625 C 92.667969 77.316406 92.667969 76.738281 87.460938 75.585938 C 82.253906 75.011719 76.46875 74.433594 71.261719 73.859375 C 58.53125 72.707031 61.425781 72.128906 80.519531 71.554688 Z M 80.519531 71.554688 " fill-opacity="1" fill-rule="evenodd"/></g><path fill="#009fdc" d="M 91.511719 72.707031 C 86.304688 72.128906 81.675781 72.128906 76.46875 72.128906 C 64.898438 71.554688 67.789062 70.976562 85.148438 70.976562 C 101.925781 70.976562 127.382812 70.402344 160.941406 70.402344 C 95.5625 69.25 51.011719 69.25 26.132812 70.976562 C 20.925781 71.554688 19.769531 71.554688 22.660156 72.128906 C 27.867188 72.707031 57.375 72.707031 54.484375 73.28125 C 49.273438 73.859375 24.394531 73.859375 17.453125 73.28125 C 30.183594 74.433594 80.519531 74.433594 92.089844 73.28125 C 96.140625 73.28125 96.140625 72.707031 91.511719 72.707031 Z M 91.511719 72.707031 " fill-opacity="1" fill-rule="evenodd"/><g fill="#000000" fill-opacity="1"><g transform="translate(143.521571, 55.454511)"><g><path d="M 0.40625 -16.46875 L 0.40625 -20.1875 L 11.328125 -20.1875 L 11.328125 -16.46875 L 8.046875 -16.46875 L 8.046875 0 L 3.6875 0 L 3.6875 -16.46875 Z M 0.40625 -16.46875 "/></g></g></g><g fill="#000000" fill-opacity="1"><g transform="translate(158.02714, 55.454511)"><g><path d="M 9.578125 -20.5 C 12.160156 -20.5 13.453125 -19.125 13.453125 -16.375 L 13.453125 0 L 9.078125 0 L 9.078125 -6.765625 L 5.921875 -6.765625 L 5.921875 0 L 1.5625 0 L 1.5625 -16.375 C 1.5625 -19.125 2.847656 -20.5 5.421875 -20.5 Z M 5.921875 -10.140625 L 9.078125 -10.140625 L 9.078125 -16.90625 C 9.078125 -17.070312 9.019531 -17.21875 8.90625 -17.34375 C 8.789062 -17.46875 8.648438 -17.53125 8.484375 -17.53125 L 6.515625 -17.53125 C 6.347656 -17.53125 6.207031 -17.46875 6.09375 -17.34375 C 5.976562 -17.21875 5.921875 -17.070312 5.921875 -16.90625 Z M 5.921875 -10.140625 "/></g></g></g><g fill="#000000" fill-opacity="1"><g transform="translate(175.901665, 55.454511)"><g><path d="M 5.921875 -7.921875 L 5.921875 0 L 1.5625 0 L 1.5625 -20.1875 L 5.921875 -20.1875 L 5.921875 -11.734375 L 9.390625 -11.734375 L 9.390625 -20.1875 L 13.765625 -20.1875 L 13.765625 0 L 9.390625 0 L 9.390625 -7.921875 Z M 5.921875 -7.921875 "/></g></g></g><g fill="#000000" fill-opacity="1"><g transform="translate(193.963355, 55.454511)"><g><path d="M 9.703125 -20.1875 L 13.921875 -20.1875 L 9.734375 0 L 4.71875 0 L 0.53125 -20.1875 L 4.78125 -20.1875 L 7.234375 -5.453125 Z M 9.703125 -20.1875 "/></g></g></g><g fill="#000000" fill-opacity="1"><g transform="translate(211.214007, 55.454511)"><g><path d="M 5.921875 -20.1875 L 5.921875 0 L 1.5625 0 L 1.5625 -20.1875 Z M 5.921875 -20.1875 "/></g></g></g><g fill="#000000" fill-opacity="1"><g transform="translate(221.570765, 55.454511)"><g><path d="M 5.890625 0 L 1.53125 0 L 1.53125 -16.375 C 1.53125 -19.125 2.816406 -20.5 5.390625 -20.5 L 7.703125 -20.5 C 9.222656 -20.5 10.304688 -20 10.953125 -19 C 11.554688 -20 12.640625 -20.5 14.203125 -20.5 L 16.5 -20.5 C 19.082031 -20.5 20.375 -19.125 20.375 -16.375 L 20.375 0 L 16 0 L 16 -16.75 C 16 -16.914062 15.941406 -17.0625 15.828125 -17.1875 C 15.710938 -17.3125 15.578125 -17.375 15.421875 -17.375 L 13.734375 -17.375 C 13.566406 -17.375 13.425781 -17.3125 13.3125 -17.1875 C 13.195312 -17.0625 13.140625 -16.914062 13.140625 -16.75 L 13.140625 0 L 8.765625 0 L 8.765625 -16.75 C 8.765625 -16.914062 8.707031 -17.0625 8.59375 -17.1875 C 8.476562 -17.3125 8.335938 -17.375 8.171875 -17.375 L 6.484375 -17.375 C 6.316406 -17.375 6.175781 -17.3125 6.0625 -17.1875 C 5.945312 -17.0625 5.890625 -16.914062 5.890625 -16.75 Z M 5.890625 0 "/></g></g></g><g fill="#000000" fill-opacity="1"><g transform="translate(246.120831, 55.454511)"><g><path d="M 13.453125 -16.375 L 13.453125 -3.8125 C 13.453125 -1.0625 12.160156 0.3125 9.578125 0.3125 L 5.421875 0.3125 C 2.847656 0.3125 1.5625 -1.0625 1.5625 -3.8125 L 1.5625 -16.375 C 1.5625 -19.125 2.847656 -20.5 5.421875 -20.5 L 9.578125 -20.5 C 12.160156 -20.5 13.453125 -19.125 13.453125 -16.375 Z M 9.078125 -3.3125 L 9.078125 -16.90625 C 9.078125 -17.070312 9.019531 -17.21875 8.90625 -17.34375 C 8.789062 -17.46875 8.648438 -17.53125 8.484375 -17.53125 L 6.515625 -17.53125 C 6.347656 -17.53125 6.207031 -17.46875 6.09375 -17.34375 C 5.976562 -17.21875 5.921875 -17.070312 5.921875 -16.90625 L 5.921875 -3.3125 C 5.921875 -3.144531 5.976562 -3 6.09375 -2.875 C 6.207031 -2.75 6.347656 -2.6875 6.515625 -2.6875 L 8.484375 -2.6875 C 8.648438 -2.6875 8.789062 -2.75 8.90625 -2.875 C 9.019531 -3 9.078125 -3.144531 9.078125 -3.3125 Z M 9.078125 -3.3125 "/></g></g></g><g fill="#000000" fill-opacity="1"><g transform="translate(263.964172, 55.454511)"><g><path d="M 9.078125 -3.3125 L 9.078125 -6.421875 L 13.234375 -6.421875 L 13.234375 -3.8125 C 13.234375 -1.0625 11.941406 0.3125 9.359375 0.3125 L 5.421875 0.3125 C 2.847656 0.3125 1.5625 -1.0625 1.5625 -3.8125 L 1.5625 -16.375 C 1.5625 -19.125 2.847656 -20.5 5.421875 -20.5 L 9.359375 -20.5 C 11.941406 -20.5 13.234375 -19.125 13.234375 -16.375 L 13.234375 -14.484375 L 9.078125 -14.484375 L 9.078125 -16.90625 C 9.078125 -17.070312 9.019531 -17.21875 8.90625 -17.34375 C 8.789062 -17.46875 8.648438 -17.53125 8.484375 -17.53125 L 6.515625 -17.53125 C 6.347656 -17.53125 6.207031 -17.46875 6.09375 -17.34375 C 5.976562 -17.21875 5.921875 -17.070312 5.921875 -16.90625 L 5.921875 -3.3125 C 5.921875 -3.144531 5.976562 -3 6.09375 -2.875 C 6.207031 -2.75 6.347656 -2.6875 6.515625 -2.6875 L 8.484375 -2.6875 C 8.648438 -2.6875 8.789062 -2.75 8.90625 -2.875 C 9.019531 -3 9.078125 -3.144531 9.078125 -3.3125 Z M 9.078125 -3.3125 "/></g></g></g><g fill="#000000" fill-opacity="1"><g transform="translate(280.996459, 55.454511)"><g><path d="M 5.921875 -7.921875 L 5.921875 0 L 1.5625 0 L 1.5625 -20.1875 L 5.921875 -20.1875 L 5.921875 -11.734375 L 9.390625 -11.734375 L 9.390625 -20.1875 L 13.765625 -20.1875 L 13.765625 0 L 9.390625 0 L 9.390625 -7.921875 Z M 5.921875 -7.921875 "/></g></g></g><g fill="#000000" fill-opacity="1"><g transform="translate(299.058154, 55.454511)"><g><path d="M 5.921875 -20.1875 L 5.921875 0 L 1.5625 0 L 1.5625 -20.1875 Z M 5.921875 -20.1875 "/></g></g></g><g fill="#000000" fill-opacity="1"><g transform="translate(309.414913, 55.454511)"><g><path d="M 9.078125 -3.3125 L 9.078125 -6.421875 L 13.234375 -6.421875 L 13.234375 -3.8125 C 13.234375 -1.0625 11.941406 0.3125 9.359375 0.3125 L 5.421875 0.3125 C 2.847656 0.3125 1.5625 -1.0625 1.5625 -3.8125 L 1.5625 -16.375 C 1.5625 -19.125 2.847656 -20.5 5.421875 -20.5 L 9.359375 -20.5 C 11.941406 -20.5 13.234375 -19.125 13.234375 -16.375 L 13.234375 -14.484375 L 9.078125 -14.484375 L 9.078125 -16.90625 C 9.078125 -17.070312 9.019531 -17.21875 8.90625 -17.34375 C 8.789062 -17.46875 8.648438 -17.53125 8.484375 -17.53125 L 6.515625 -17.53125 C 6.347656 -17.53125 6.207031 -17.46875 6.09375 -17.34375 C 5.976562 -17.21875 5.921875 -17.070312 5.921875 -16.90625 L 5.921875 -3.3125 C 5.921875 -3.144531 5.976562 -3 6.09375 -2.875 C 6.207031 -2.75 6.347656 -2.6875 6.515625 -2.6875 L 8.484375 -2.6875 C 8.648438 -2.6875 8.789062 -2.75 8.90625 -2.875 C 9.019531 -3 9.078125 -3.144531 9.078125 -3.3125 Z M 9.078125 -3.3125 "/></g></g></g><g fill="#000000" fill-opacity="1"><g transform="translate(199.21576, 68.484144)"><g><path d="M 2.90625 -6.203125 C 3.6875 -6.203125 4.078125 -5.789062 4.078125 -4.96875 L 4.078125 0 L 2.75 0 L 2.75 -2.046875 L 1.796875 -2.046875 L 1.796875 0 L 0.46875 0 L 0.46875 -4.96875 C 0.46875 -5.789062 0.859375 -6.203125 1.640625 -6.203125 Z M 1.796875 -3.078125 L 2.75 -3.078125 L 2.75 -5.125 C 2.75 -5.175781 2.726562 -5.21875 2.6875 -5.25 C 2.65625 -5.289062 2.617188 -5.3125 2.578125 -5.3125 L 1.96875 -5.3125 C 1.925781 -5.3125 1.882812 -5.289062 1.84375 -5.25 C 1.8125 -5.21875 1.796875 -5.175781 1.796875 -5.125 Z M 1.796875 -3.078125 "/></g></g></g><g fill="#000000" fill-opacity="1"><g transform="translate(203.802302, 68.484144)"><g><path d="M 3.84375 -4.609375 L 3.84375 0.34375 C 3.84375 1.175781 3.453125 1.59375 2.671875 1.59375 L 1.71875 1.59375 C 0.9375 1.59375 0.546875 1.175781 0.546875 0.34375 L 0.546875 0.203125 L 1.6875 0.203125 L 1.6875 0.5 C 1.6875 0.550781 1.703125 0.59375 1.734375 0.625 C 1.773438 0.664062 1.820312 0.6875 1.875 0.6875 L 2.390625 0.6875 C 2.441406 0.6875 2.484375 0.664062 2.515625 0.625 C 2.554688 0.59375 2.578125 0.550781 2.578125 0.5 L 2.578125 -0.4375 C 2.378906 -0.289062 2.117188 -0.21875 1.796875 -0.21875 L 1.59375 -0.21875 C 0.8125 -0.21875 0.421875 -0.632812 0.421875 -1.46875 L 0.421875 -3.453125 C 0.421875 -4.285156 0.8125 -4.703125 1.59375 -4.703125 L 1.796875 -4.703125 C 2.253906 -4.703125 2.578125 -4.554688 2.765625 -4.265625 L 2.765625 -4.609375 Z M 2.578125 -1.3125 L 2.578125 -3.609375 C 2.578125 -3.660156 2.554688 -3.703125 2.515625 -3.734375 C 2.484375 -3.773438 2.441406 -3.796875 2.390625 -3.796875 L 1.875 -3.796875 C 1.820312 -3.796875 1.773438 -3.773438 1.734375 -3.734375 C 1.703125 -3.703125 1.6875 -3.660156 1.6875 -3.609375 L 1.6875 -1.3125 C 1.6875 -1.257812 1.703125 -1.210938 1.734375 -1.171875 C 1.773438 -1.140625 1.820312 -1.125 1.875 -1.125 L 2.390625 -1.125 C 2.441406 -1.125 2.484375 -1.140625 2.515625 -1.171875 C 2.554688 -1.210938 2.578125 -1.257812 2.578125 -1.3125 Z M 2.578125 -1.3125 "/></g></g></g><g fill="#000000" fill-opacity="1"><g transform="translate(208.076766, 68.484144)"><g><path d="M 2.578125 -4.609375 L 3.84375 -4.609375 L 3.84375 0 L 2.6875 0 L 2.6875 -0.234375 C 2.488281 -0.015625 2.191406 0.09375 1.796875 0.09375 L 1.59375 0.09375 C 0.8125 0.09375 0.421875 -0.320312 0.421875 -1.15625 L 0.421875 -4.609375 L 1.6875 -4.609375 L 1.6875 -1 C 1.6875 -0.945312 1.703125 -0.898438 1.734375 -0.859375 C 1.773438 -0.828125 1.820312 -0.8125 1.875 -0.8125 L 2.390625 -0.8125 C 2.441406 -0.8125 2.484375 -0.828125 2.515625 -0.859375 C 2.554688 -0.898438 2.578125 -0.945312 2.578125 -1 Z M 2.578125 -4.609375 "/></g></g></g><g fill="#000000" fill-opacity="1"><g transform="translate(212.351229, 68.484144)"><g><path d="M 2.765625 -4.609375 L 3.84375 -4.609375 L 3.84375 0 L 2.765625 0 L 2.765625 -0.34375 C 2.578125 -0.0507812 2.253906 0.09375 1.796875 0.09375 L 1.59375 0.09375 C 0.8125 0.09375 0.421875 -0.320312 0.421875 -1.15625 L 0.421875 -3.453125 C 0.421875 -4.285156 0.8125 -4.703125 1.59375 -4.703125 L 1.796875 -4.703125 C 2.253906 -4.703125 2.578125 -4.554688 2.765625 -4.265625 Z M 2.578125 -1 L 2.578125 -3.609375 C 2.578125 -3.660156 2.554688 -3.703125 2.515625 -3.734375 C 2.484375 -3.773438 2.441406 -3.796875 2.390625 -3.796875 L 1.875 -3.796875 C 1.820312 -3.796875 1.773438 -3.773438 1.734375 -3.734375 C 1.703125 -3.703125 1.6875 -3.660156 1.6875 -3.609375 L 1.6875 -1 C 1.6875 -0.945312 1.703125 -0.898438 1.734375 -0.859375 C 1.773438 -0.828125 1.820312 -0.8125 1.875 -0.8125 L 2.390625 -0.8125 C 2.441406 -0.8125 2.484375 -0.828125 2.515625 -0.859375 C 2.554688 -0.898438 2.578125 -0.945312 2.578125 -1 Z M 2.578125 -1 "/></g></g></g><g fill="#000000" fill-opacity="1"><g transform="translate(216.625693, 68.484144)"><g/></g></g><g fill="#000000" fill-opacity="1"><g transform="translate(218.535968, 68.484144)"><g><path d="M 2.671875 0.09375 L 2.46875 0.09375 C 2.144531 0.09375 1.882812 0.0195312 1.6875 -0.125 L 1.6875 1.5 L 0.421875 1.5 L 0.421875 -4.609375 L 1.5 -4.609375 L 1.5 -4.265625 C 1.6875 -4.554688 2.007812 -4.703125 2.46875 -4.703125 L 2.671875 -4.703125 C 3.453125 -4.703125 3.84375 -4.285156 3.84375 -3.453125 L 3.84375 -1.15625 C 3.84375 -0.320312 3.453125 0.09375 2.671875 0.09375 Z M 1.6875 -3.609375 L 1.6875 -1 C 1.6875 -0.945312 1.703125 -0.898438 1.734375 -0.859375 C 1.773438 -0.828125 1.820312 -0.8125 1.875 -0.8125 L 2.390625 -0.8125 C 2.441406 -0.8125 2.484375 -0.828125 2.515625 -0.859375 C 2.554688 -0.898438 2.578125 -0.945312 2.578125 -1 L 2.578125 -3.609375 C 2.578125 -3.660156 2.554688 -3.703125 2.515625 -3.734375 C 2.484375 -3.773438 2.441406 -3.796875 2.390625 -3.796875 L 1.875 -3.796875 C 1.820312 -3.796875 1.773438 -3.773438 1.734375 -3.734375 C 1.703125 -3.703125 1.6875 -3.660156 1.6875 -3.609375 Z M 1.6875 -3.609375 "/></g></g></g><g fill="#000000" fill-opacity="1"><g transform="translate(222.810431, 68.484144)"><g><path d="M 2.765625 -4.609375 L 3.84375 -4.609375 L 3.84375 0 L 2.765625 0 L 2.765625 -0.34375 C 2.578125 -0.0507812 2.253906 0.09375 1.796875 0.09375 L 1.59375 0.09375 C 0.8125 0.09375 0.421875 -0.320312 0.421875 -1.15625 L 0.421875 -3.453125 C 0.421875 -4.285156 0.8125 -4.703125 1.59375 -4.703125 L 1.796875 -4.703125 C 2.253906 -4.703125 2.578125 -4.554688 2.765625 -4.265625 Z M 2.578125 -1 L 2.578125 -3.609375 C 2.578125 -3.660156 2.554688 -3.703125 2.515625 -3.734375 C 2.484375 -3.773438 2.441406 -3.796875 2.390625 -3.796875 L 1.875 -3.796875 C 1.820312 -3.796875 1.773438 -3.773438 1.734375 -3.734375 C 1.703125 -3.703125 1.6875 -3.660156 1.6875 -3.609375 L 1.6875 -1 C 1.6875 -0.945312 1.703125 -0.898438 1.734375 -0.859375 C 1.773438 -0.828125 1.820312 -0.8125 1.875 -0.8125 L 2.390625 -0.8125 C 2.441406 -0.8125 2.484375 -0.828125 2.515625 -0.859375 C 2.554688 -0.898438 2.578125 -0.945312 2.578125 -1 Z M 2.578125 -1 "/></g></g></g><g fill="#000000" fill-opacity="1"><g transform="translate(227.084895, 68.484144)"><g><path d="M 2.390625 -4.703125 L 2.640625 -4.703125 L 2.640625 -3.484375 L 2.015625 -3.484375 C 1.796875 -3.484375 1.6875 -3.367188 1.6875 -3.140625 L 1.6875 0 L 0.421875 0 L 0.421875 -4.609375 L 1.578125 -4.609375 L 1.578125 -4.171875 C 1.765625 -4.523438 2.035156 -4.703125 2.390625 -4.703125 Z M 2.390625 -4.703125 "/></g></g></g><g fill="#000000" fill-opacity="1"><g transform="translate(229.865185, 68.484144)"><g><path d="M 2.765625 -4.609375 L 3.84375 -4.609375 L 3.84375 0 L 2.765625 0 L 2.765625 -0.34375 C 2.578125 -0.0507812 2.253906 0.09375 1.796875 0.09375 L 1.59375 0.09375 C 0.8125 0.09375 0.421875 -0.320312 0.421875 -1.15625 L 0.421875 -3.453125 C 0.421875 -4.285156 0.8125 -4.703125 1.59375 -4.703125 L 1.796875 -4.703125 C 2.253906 -4.703125 2.578125 -4.554688 2.765625 -4.265625 Z M 2.578125 -1 L 2.578125 -3.609375 C 2.578125 -3.660156 2.554688 -3.703125 2.515625 -3.734375 C 2.484375 -3.773438 2.441406 -3.796875 2.390625 -3.796875 L 1.875 -3.796875 C 1.820312 -3.796875 1.773438 -3.773438 1.734375 -3.734375 C 1.703125 -3.703125 1.6875 -3.660156 1.6875 -3.609375 L 1.6875 -1 C 1.6875 -0.945312 1.703125 -0.898438 1.734375 -0.859375 C 1.773438 -0.828125 1.820312 -0.8125 1.875 -0.8125 L 2.390625 -0.8125 C 2.441406 -0.8125 2.484375 -0.828125 2.515625 -0.859375 C 2.554688 -0.898438 2.578125 -0.945312 2.578125 -1 Z M 2.578125 -1 "/></g></g></g><g fill="#000000" fill-opacity="1"><g transform="translate(234.139649, 68.484144)"><g/></g></g><g fill="#000000" fill-opacity="1"><g transform="translate(236.049923, 68.484144)"><g><path d="M 1.6875 0 L 0.421875 0 L 0.421875 -6.109375 L 1.6875 -6.109375 Z M 1.6875 0 "/></g></g></g><g fill="#000000" fill-opacity="1"><g transform="translate(238.168243, 68.484144)"><g><path d="M 2.765625 -4.609375 L 3.84375 -4.609375 L 3.84375 0 L 2.765625 0 L 2.765625 -0.34375 C 2.578125 -0.0507812 2.253906 0.09375 1.796875 0.09375 L 1.59375 0.09375 C 0.8125 0.09375 0.421875 -0.320312 0.421875 -1.15625 L 0.421875 -3.453125 C 0.421875 -4.285156 0.8125 -4.703125 1.59375 -4.703125 L 1.796875 -4.703125 C 2.253906 -4.703125 2.578125 -4.554688 2.765625 -4.265625 Z M 2.578125 -1 L 2.578125 -3.609375 C 2.578125 -3.660156 2.554688 -3.703125 2.515625 -3.734375 C 2.484375 -3.773438 2.441406 -3.796875 2.390625 -3.796875 L 1.875 -3.796875 C 1.820312 -3.796875 1.773438 -3.773438 1.734375 -3.734375 C 1.703125 -3.703125 1.6875 -3.660156 1.6875 -3.609375 L 1.6875 -1 C 1.6875 -0.945312 1.703125 -0.898438 1.734375 -0.859375 C 1.773438 -0.828125 1.820312 -0.8125 1.875 -0.8125 L 2.390625 -0.8125 C 2.441406 -0.8125 2.484375 -0.828125 2.515625 -0.859375 C 2.554688 -0.898438 2.578125 -0.945312 2.578125 -1 Z M 2.578125 -1 "/></g></g></g><g fill="#000000" fill-opacity="1"><g transform="translate(242.442706, 68.484144)"><g/></g></g><g fill="#000000" fill-opacity="1"><g transform="translate(244.352981, 68.484144)"><g><path d="M 1.796875 -2.5 L 1.796875 0 L 0.46875 0 L 0.46875 -6.109375 L 2.828125 -6.109375 C 3.609375 -6.109375 4 -5.695312 4 -4.875 L 4 -4.15625 C 4 -3.65625 3.816406 -3.332031 3.453125 -3.1875 C 3.773438 -3.082031 3.9375 -2.828125 3.9375 -2.421875 L 3.9375 0 L 2.609375 0 L 2.609375 -2.3125 C 2.609375 -2.4375 2.546875 -2.5 2.421875 -2.5 Z M 1.796875 -5.21875 L 1.796875 -3.4375 L 2.5 -3.4375 C 2.550781 -3.4375 2.59375 -3.453125 2.625 -3.484375 C 2.65625 -3.523438 2.671875 -3.570312 2.671875 -3.625 L 2.671875 -5.03125 C 2.671875 -5.082031 2.65625 -5.125 2.625 -5.15625 C 2.59375 -5.195312 2.550781 -5.21875 2.5 -5.21875 Z M 1.796875 -5.21875 "/></g></g></g><g fill="#000000" fill-opacity="1"><g transform="translate(248.731467, 68.484144)"><g><path d="M 2.671875 -4.703125 C 3.453125 -4.703125 3.84375 -4.285156 3.84375 -3.453125 L 3.84375 -1.96875 L 1.6875 -1.96875 L 1.6875 -1 C 1.6875 -0.945312 1.703125 -0.898438 1.734375 -0.859375 C 1.773438 -0.828125 1.820312 -0.8125 1.875 -0.8125 L 2.390625 -0.8125 C 2.441406 -0.8125 2.484375 -0.828125 2.515625 -0.859375 C 2.554688 -0.898438 2.578125 -0.945312 2.578125 -1 L 2.578125 -1.515625 L 3.84375 -1.515625 L 3.84375 -1.15625 C 3.84375 -0.320312 3.453125 0.09375 2.671875 0.09375 L 1.59375 0.09375 C 0.8125 0.09375 0.421875 -0.320312 0.421875 -1.15625 L 0.421875 -3.453125 C 0.421875 -4.285156 0.8125 -4.703125 1.59375 -4.703125 Z M 1.6875 -2.796875 L 2.578125 -2.796875 L 2.578125 -3.65625 C 2.578125 -3.695312 2.554688 -3.738281 2.515625 -3.78125 C 2.484375 -3.820312 2.441406 -3.84375 2.390625 -3.84375 L 1.875 -3.84375 C 1.820312 -3.84375 1.773438 -3.820312 1.734375 -3.78125 C 1.703125 -3.738281 1.6875 -3.695312 1.6875 -3.65625 Z M 1.6875 -2.796875 "/></g></g></g><g fill="#000000" fill-opacity="1"><g transform="translate(252.845172, 68.484144)"><g><path d="M 3.84375 -4.609375 L 3.84375 0.34375 C 3.84375 1.175781 3.453125 1.59375 2.671875 1.59375 L 1.71875 1.59375 C 0.9375 1.59375 0.546875 1.175781 0.546875 0.34375 L 0.546875 0.203125 L 1.6875 0.203125 L 1.6875 0.5 C 1.6875 0.550781 1.703125 0.59375 1.734375 0.625 C 1.773438 0.664062 1.820312 0.6875 1.875 0.6875 L 2.390625 0.6875 C 2.441406 0.6875 2.484375 0.664062 2.515625 0.625 C 2.554688 0.59375 2.578125 0.550781 2.578125 0.5 L 2.578125 -0.4375 C 2.378906 -0.289062 2.117188 -0.21875 1.796875 -0.21875 L 1.59375 -0.21875 C 0.8125 -0.21875 0.421875 -0.632812 0.421875 -1.46875 L 0.421875 -3.453125 C 0.421875 -4.285156 0.8125 -4.703125 1.59375 -4.703125 L 1.796875 -4.703125 C 2.253906 -4.703125 2.578125 -4.554688 2.765625 -4.265625 L 2.765625 -4.609375 Z M 2.578125 -1.3125 L 2.578125 -3.609375 C 2.578125 -3.660156 2.554688 -3.703125 2.515625 -3.734375 C 2.484375 -3.773438 2.441406 -3.796875 2.390625 -3.796875 L 1.875 -3.796875 C 1.820312 -3.796875 1.773438 -3.773438 1.734375 -3.734375 C 1.703125 -3.703125 1.6875 -3.660156 1.6875 -3.609375 L 1.6875 -1.3125 C 1.6875 -1.257812 1.703125 -1.210938 1.734375 -1.171875 C 1.773438 -1.140625 1.820312 -1.125 1.875 -1.125 L 2.390625 -1.125 C 2.441406 -1.125 2.484375 -1.140625 2.515625 -1.171875 C 2.554688 -1.210938 2.578125 -1.257812 2.578125 -1.3125 Z M 2.578125 -1.3125 "/></g></g></g><g fill="#000000" fill-opacity="1"><g transform="translate(257.119635, 68.484144)"><g><path d="M 1.71875 -5.1875 C 1.582031 -5.050781 1.414062 -4.984375 1.21875 -4.984375 C 1.03125 -4.984375 0.867188 -5.050781 0.734375 -5.1875 C 0.597656 -5.320312 0.53125 -5.484375 0.53125 -5.671875 C 0.53125 -5.867188 0.597656 -6.035156 0.734375 -6.171875 C 0.867188 -6.304688 1.03125 -6.375 1.21875 -6.375 C 1.414062 -6.375 1.582031 -6.304688 1.71875 -6.171875 C 1.851562 -6.035156 1.921875 -5.867188 1.921875 -5.671875 C 1.921875 -5.484375 1.851562 -5.320312 1.71875 -5.1875 Z M 0.59375 0 L 0.59375 -4.609375 L 1.859375 -4.609375 L 1.859375 0 Z M 0.59375 0 "/></g></g></g><g fill="#000000" fill-opacity="1"><g transform="translate(259.446, 68.484144)"><g><path d="M 3.84375 -3.453125 L 3.84375 -1.15625 C 3.84375 -0.320312 3.453125 0.09375 2.671875 0.09375 L 1.59375 0.09375 C 0.8125 0.09375 0.421875 -0.320312 0.421875 -1.15625 L 0.421875 -3.453125 C 0.421875 -4.285156 0.8125 -4.703125 1.59375 -4.703125 L 2.671875 -4.703125 C 3.453125 -4.703125 3.84375 -4.285156 3.84375 -3.453125 Z M 2.578125 -0.890625 L 2.578125 -3.734375 C 2.578125 -3.785156 2.554688 -3.828125 2.515625 -3.859375 C 2.484375 -3.898438 2.441406 -3.921875 2.390625 -3.921875 L 1.875 -3.921875 C 1.820312 -3.921875 1.773438 -3.898438 1.734375 -3.859375 C 1.703125 -3.828125 1.6875 -3.785156 1.6875 -3.734375 L 1.6875 -0.890625 C 1.6875 -0.835938 1.703125 -0.789062 1.734375 -0.75 C 1.773438 -0.71875 1.820312 -0.703125 1.875 -0.703125 L 2.390625 -0.703125 C 2.441406 -0.703125 2.484375 -0.71875 2.515625 -0.75 C 2.554688 -0.789062 2.578125 -0.835938 2.578125 -0.890625 Z M 3.453125 -6.109375 L 2.21875 -5.15625 L 1.28125 -5.15625 L 2.0625 -6.109375 Z M 3.453125 -6.109375 "/></g></g></g><g fill="#000000" fill-opacity="1"><g transform="translate(263.720464, 68.484144)"><g><path d="M 1.6875 0 L 0.421875 0 L 0.421875 -4.609375 L 1.578125 -4.609375 L 1.578125 -4.375 C 1.773438 -4.59375 2.070312 -4.703125 2.46875 -4.703125 L 2.671875 -4.703125 C 3.453125 -4.703125 3.84375 -4.285156 3.84375 -3.453125 L 3.84375 0 L 2.578125 0 L 2.578125 -3.609375 C 2.578125 -3.660156 2.554688 -3.703125 2.515625 -3.734375 C 2.484375 -3.773438 2.441406 -3.796875 2.390625 -3.796875 L 1.875 -3.796875 C 1.820312 -3.796875 1.773438 -3.773438 1.734375 -3.734375 C 1.703125 -3.703125 1.6875 -3.660156 1.6875 -3.609375 Z M 1.6875 0 "/></g></g></g></svg>